<svg width="210" height="202" viewBox="0 0 210 202" fill="none" xmlns="http://www.w3.org/2000/svg">
<path d="M50.5527 105.724C49.7369 105.074 26.6184 77.3006 24.9868 76.0009L22.9884 73.0007L24.9868 61.0011L38.9887 58.5011L97.4876 85.5011L154.488 123.793L72.5795 123.793C62.1859 113.27 51.2053 106.243 50.5527 105.724Z" fill="#020828"/>
<path d="M206.409 155.101C208.766 150.575 204.702 144.716 203.064 141.387C201.952 139.122 201.767 139.583 198.513 136.972C196.853 135.643 196.103 135.031 191.118 134.402C188.274 133.581 187.119 132.318 185.869 126.526C184.776 121.479 181.79 119.028 176.639 118.949C174.97 118.941 171.411 116.544 167.935 114.243C163.637 111.387 159.555 108.681 157.421 108.988C154.689 109.35 154.185 108.951 150.888 106.279C149.908 105.49 148.696 104.514 147.121 103.307C142.614 99.8631 140.087 100.236 138.029 100.525C136.971 100.803 135.85 100.721 134.843 100.292C131.36 98.6072 126.601 98.7948 119.67 98.4205C116.063 98.218 113.115 95.0466 110.223 91.9354C107.76 89.2546 105.377 85.6881 102.813 85.5389C97.8405 85.2676 90.1801 75.2932 87.6252 75.9889C85.6493 76.5278 80.7402 73.5613 77.3373 69.7691C73.9345 65.977 70.4614 62.1001 66.0515 61.2632C65.0375 61.0797 63.9523 60.9781 62.8162 60.8802C59.0848 60.5584 54.8482 60.1703 50.9337 56.2226C45.5564 50.8423 41.4065 50.4095 35.6973 45.2324C32.5282 42.2152 28.781 39.8689 24.6807 38.3344C24.5744 38.2997 24.4586 38.3085 24.3588 38.3589C24.259 38.4093 24.1833 38.4972 24.1482 38.6033C24.1121 38.7097 24.1188 38.826 24.1667 38.9277C24.2147 39.0294 24.3003 39.1086 24.4055 39.1486C30.0266 41.3081 32.2982 47.2187 38.7622 50.9323C41.1296 52.2745 42.2479 53.9113 42.0138 55.6579C41.8722 56.4604 41.519 57.2108 40.9908 57.8319C40.4625 58.4531 39.7782 58.9225 39.0081 59.1921C36.7905 59.7612 35.772 59.5139 31.9192 58.5729C28.2889 57.6929 26.4113 52.2666 23.0196 49.8831C19.628 47.4996 13.9562 42.8451 12.0904 41.6975C9.55881 40.3088 6.64188 39.7845 3.78395 40.2047C1.62933 40.7564 -4.63786 36.0293 -6.636 34.6478C-9.05183 32.9888 -10.1228 30.5798 -12.1327 29.5707C-26.5943 22.4073 -19.3856 29.8859 -37.2295 16.8915C-37.2738 16.8479 -37.3269 16.8143 -37.3853 16.793C-37.4437 16.7717 -37.506 16.7631 -37.568 16.7679C-37.63 16.7726 -37.6903 16.7905 -37.7448 16.8205C-37.7993 16.8505 -37.8467 16.8918 -37.8838 16.9416C-37.921 16.9914 -37.947 17.0485 -37.9602 17.1092C-37.9733 17.1699 -37.9733 17.2327 -37.9601 17.2934C-37.9469 17.3541 -37.9209 17.4112 -37.8837 17.461C-37.8465 17.5108 -37.799 17.552 -37.7446 17.5819C-28.062 24.6652 -30.0727 24.5403 -26.9992 27.1389C-26.2232 27.6551 -25.6784 28.4521 -25.4797 29.3619C-24.9649 31.8877 -23.1269 30.1414 -21.6885 32.3062C-19.9774 34.8743 -13.9976 38.456 -12.449 40.19C-10.9003 41.9241 -5.48974 44.7266 -1.79289 45.6403C1.60304 46.4731 0.966607 46.7237 1.00348 48.8481C1.02216 51.2556 5.8949 54.7886 12.0896 56.8942C15.377 58.0039 17.9955 60.6991 21.308 64.1261C24.4882 67.5616 27.934 70.7419 31.6138 73.6377C36.9079 77.6786 38.2762 80.6557 39.4813 83.3241C40.4868 86.0075 42.3075 88.3097 44.6883 89.9084C50.2769 93.7616 74.2909 109.056 82.3636 114.268L74.2786 111.747C74.18 111.712 74.0718 111.715 73.9751 111.755C73.8784 111.795 73.8 111.87 73.7552 111.964C73.7108 112.061 73.7034 112.17 73.7343 112.272C73.7652 112.373 73.8324 112.46 73.9231 112.516C78.4273 115.383 97.1138 128.497 104.452 133.66C96.5297 130.55 81.9252 125.153 81.7501 125.037C81.6469 125.01 81.5374 125.022 81.4423 125.07C81.3473 125.119 81.2733 125.2 81.2345 125.299C81.1957 125.399 81.1947 125.509 81.2318 125.608C81.2689 125.708 81.3415 125.791 81.4357 125.841C85.905 127.686 101.397 137.223 107.329 140.859C101.744 139.389 90.3118 136.173 90.1677 136.132C90.068 136.103 89.961 136.111 89.8672 136.156C89.7733 136.2 89.6992 136.278 89.659 136.373C89.618 136.468 89.6123 136.575 89.6429 136.674C89.6735 136.772 89.7384 136.857 89.8259 136.912C91.5873 137.928 93.4307 138.794 95.3368 139.503C99.1339 140.996 102.826 142.743 106.388 144.732C109.34 146.343 112.208 148.104 114.978 150.01C117.066 151.498 119.276 152.805 121.585 153.919C122.792 154.432 123.858 155.229 124.69 156.243C125.523 157.256 126.097 158.456 126.365 159.739C126.906 161.684 127.867 163.487 129.182 165.021C133.53 169.835 140.461 175.411 146.159 176.848L147.047 177.066C152.431 178.422 156.691 179.488 159.773 183.636C161.688 186.19 164.233 186.968 167.506 187.156C169.077 187.236 170.819 187.188 172.739 187.127C174.148 187.09 175.619 187.036 177.199 187.051C180.731 187.242 184.196 186.031 186.837 183.681C188.313 182.455 189.975 181.471 191.761 180.766C196.972 178.816 197.499 177.574 198.877 174.246C199.139 173.612 199.449 172.923 199.824 172.064C200.935 169.463 202.396 167.026 204.167 164.82C204.649 164.196 205.174 163.467 205.76 162.694C208.426 159.069 205.125 157.602 206.409 155.101ZM182.127 175.793C173.272 174.698 172.289 181.752 165.742 176.878C159.195 172.005 154.328 169.445 155.2 166.397C156.072 163.349 157.744 163.934 153.195 160.98C148.646 158.026 148.072 159.502 148.252 154.505C148.433 149.508 144.428 151.102 148.396 146.307C152.363 141.512 151.224 140.658 158.298 141.253C165.373 141.848 161.254 137.914 166.964 139.35C172.753 138.474 172.341 136.312 175.594 137.834C179.198 139.624 182.902 141.206 186.687 142.574C195.193 144.527 197.64 158.254 191.459 164.924C185.278 171.595 190.969 176.876 182.127 175.793ZM128.377 140.388C127.869 140.629 127.567 140.356 127.184 140.025C126.801 139.693 125.947 138.704 127.169 138.744C128.391 138.785 128.886 140.146 128.377 140.388ZM128.42 136.336C126.94 134.661 109.231 121.759 105.454 120.262C101.677 118.764 77.2849 101.601 77.2849 101.601C77.2849 101.601 95.9164 113.412 103.226 116.398C110.536 119.385 101.198 111.546 98.1925 108.648C95.8084 106.359 76.6679 93.5346 68.8168 88.3701C67.6328 87.741 66.5136 86.9973 65.4753 86.1496L68.8168 88.3701C76.1498 92.5723 91.9136 99.8217 91.9136 99.8217C89.837 98.4202 55.0164 72.3565 55.0164 72.3565C55.0164 72.3565 86.8205 93.2165 95.5308 99.447C104.241 105.677 99.0813 97.7829 103.111 100.3C107.141 102.817 109.922 104.553 120.583 111.322C131.244 118.092 130.267 110.564 134.819 111.583C139.37 112.602 139.363 117.868 143.084 123.239C146.806 128.61 159.119 127.292 168.8 131.851C166.947 131.599 161.151 134.872 156.585 134.008C154.333 133.578 152.016 133.618 149.78 134.125C148.05 133.578 146.43 132.731 144.994 131.623C144.306 131.064 143.534 130.618 142.705 130.301C141.399 129.972 135.072 125.851 132.955 124.414L132.226 123.916C132.142 123.851 132.037 123.82 131.931 123.828C131.825 123.835 131.726 123.881 131.651 123.957C131.59 124.042 131.56 124.146 131.567 124.251C131.575 124.356 131.619 124.455 131.693 124.53C131.697 124.594 132.072 124.811 132.572 125.159C134.195 126.324 136.829 128.519 139.381 130.642C142.982 133.625 145.34 135.545 146.347 136.165C145.651 136.842 144.701 137.731 143.676 138.829C142.885 138.354 142.034 137.984 141.146 137.729C135.902 136.171 132.509 131.801 130.234 131.029C128.353 130.382 119.444 123.717 116.464 121.343C116.068 121.013 115.713 120.718 115.415 120.496C115.33 120.435 115.226 120.407 115.122 120.417C115.018 120.426 114.921 120.473 114.849 120.548C114.777 120.623 114.734 120.722 114.728 120.826C114.722 120.93 114.754 121.033 114.818 121.115L114.899 121.173C118.862 124.182 133.277 138.755 135.496 139.992C136.832 140.729 138.281 143.034 140.156 144.309C139.498 148.201 141.186 154.025 141.186 154.025C141.186 154.025 138.056 146.164 134.65 144.832C131.244 143.501 129.912 137.997 128.42 136.336ZM124.652 137.464C123.61 137.962 122.991 137.391 122.198 136.705C121.404 136.019 119.655 133.991 122.17 133.99C124.685 133.99 125.643 136.97 124.601 137.468L124.652 137.464ZM44.2434 75.474C42.2137 75.9783 40.8764 73.4347 39.5359 72.8133C39.1373 72.624 26.9321 62.749 26.9184 62.7371C27.1737 62.8982 34.4477 67.8863 35.9523 68.2909C37.457 68.6955 39.1881 71.0059 42.5275 71.7659C45.8668 72.5258 46.2357 74.9852 44.1923 75.4777L44.2434 75.474ZM48.8721 66.4802C49.7958 66.478 49.8125 67.9632 48.9197 67.1431C48.6388 66.9839 48.2046 66.4768 48.821 66.4839L48.8721 66.4802ZM51.371 68.7612C52.2565 68.7617 52.7391 69.9444 52.3114 70.0647C51.8838 70.1851 51.6813 70.0459 51.3803 69.7856C51.0794 69.5252 50.3835 68.7679 51.32 68.7648L51.371 68.7612ZM112.356 131.875C110.346 132.468 108.897 129.984 107.535 129.415C106.172 128.846 98.2415 122.394 95.0879 120.288C94.7396 120.082 94.5107 119.932 94.4833 119.908L95.0879 120.288C96.941 121.436 102.584 124.798 103.758 125.06C105.154 125.383 107.098 127.627 110.479 128.243C113.859 128.859 114.328 131.285 112.318 131.878L112.356 131.875ZM82.5431 84.208C85.1548 86.2313 87.9064 88.0678 90.7773 89.7038C92.0923 90.1477 93.8818 92.5564 97.192 93.4465C100.502 94.3367 100.808 96.8134 98.7429 97.1793C96.6776 97.5453 95.4552 94.9934 94.1493 94.3182C92.8434 93.6431 85.4825 86.547 82.5267 84.1579C82.3293 84.0234 82.1391 83.8788 81.9567 83.7247L82.5431 84.208ZM108.39 98.9348C108.129 99.056 107.981 98.9641 107.785 98.7347C107.589 98.5053 107.147 98.063 107.738 98.0718C108.329 98.0807 108.599 98.8045 108.39 98.9348ZM119.091 105.01C120.499 105.319 122.431 107.576 125.811 108.18C129.19 108.783 129.7 111.232 127.688 111.812C125.677 112.392 124.229 109.92 122.868 109.364C122.457 109.189 109.83 99.8694 109.815 99.8449C109.801 99.8203 117.551 104.659 119.091 105.01ZM149.509 120.677C150.441 121.148 152.642 122.682 150.21 123.292C147.777 123.902 144.313 120.332 145.209 119.589C146.105 118.845 148.576 120.193 149.496 120.678L149.509 120.677ZM92.0645 72.7619C92.4556 72.3111 93.0803 72.971 93.7451 73.4743C96.9161 75.643 106.169 81.7448 108.093 82.2731C110.568 82.9669 113.731 86.9941 119.393 88.2922C126.634 89.964 125.985 95.9431 121.115 95.6645C117.959 95.4937 115.952 91.8448 113.947 90.8995C111.583 89.7877 96.4466 76.2532 92.1612 73.3957C92.1102 73.3632 92.0665 73.3204 92.033 73.2701C91.9995 73.2197 91.9769 73.163 91.9665 73.1034C91.9562 73.0439 91.9585 72.9828 91.9731 72.9242C91.9878 72.8655 92.0146 72.8106 92.0517 72.7629L92.0645 72.7619ZM67.8193 113.466C65.2926 114.019 63.527 112.3 61.7576 110.531C58.3557 107.11 62.9908 112.159 49.1063 99.9831C39.3022 91.3838 37.8686 90.5384 38.0291 90.6294C37.963 90.5496 37.9277 90.4488 37.9294 90.3452C37.9312 90.2417 37.9699 90.1421 38.0386 90.0645C38.1074 89.987 38.2016 89.9364 38.3043 89.9221C38.4071 89.9078 38.5115 89.9305 38.5989 89.9863C57.1549 102.891 52.6742 98.5612 57.0982 101.921C59.4131 103.873 62.1135 105.317 65.024 106.158C71.3225 107.744 71.71 112.61 67.8065 113.467L67.8193 113.466ZM12.1813 35.4509C27.6843 47.6521 23.8382 43.5842 27.5391 46.7016C29.4279 48.4975 31.6732 49.8774 34.1299 50.752C40.1166 52.6419 39.4446 57.5848 35.3612 57.3651C32.5016 57.2114 30.8751 53.6762 29.2126 52.6807C27.2446 51.5405 15.1582 38.8508 11.6498 36.0913C11.58 36.069 11.517 36.0295 11.4666 35.9764C11.4162 35.9233 11.38 35.8584 11.3614 35.7877C11.3428 35.7169 11.3424 35.6426 11.3603 35.5716C11.3781 35.5007 11.4136 35.4353 11.4634 35.3817C11.5133 35.3281 11.5759 35.2879 11.6454 35.2649C11.715 35.2419 11.7892 35.2367 11.8613 35.25C11.9333 35.2633 12.0008 35.2945 12.0576 35.3407C12.1143 35.387 12.1585 35.4468 12.1859 35.5147L12.1813 35.4509ZM159.407 144.364C159.206 145.506 156.437 146.076 155.414 146.303C154.391 146.53 151.727 146.773 153.198 144.745C154.669 142.718 159.629 143.349 159.411 144.428L159.407 144.364ZM155.107 152.04C155.826 152.937 155.404 153.672 154.92 154.616C154.436 155.561 152.858 157.711 152.284 155.266C151.711 152.822 154.379 151.195 155.112 152.104L155.107 152.04ZM88.3991 69.4243C89.0218 69.1618 89.3264 69.4731 89.7122 69.8426C90.098 70.2122 90.959 71.3036 89.5465 71.2896C88.1341 71.2756 87.78 69.7377 88.4036 69.488L88.3991 69.4243ZM31.1938 85.3152C30.0065 85.4003 29.2549 84.0447 29.7965 83.724C30.3381 83.4033 30.639 83.6636 31.0968 83.9639C31.5547 84.2642 32.4457 85.2382 31.1983 85.3789L31.1938 85.3152ZM167.965 142.392C168.213 143.527 166.522 144.815 165.903 145.308C165.284 145.8 163.556 146.757 163.865 144.441C164.174 142.126 167.654 141.274 167.965 142.392Z" fill="#2762E3"/>
</svg>
