<svg width="65" height="19" viewBox="0 0 65 19" fill="none" xmlns="http://www.w3.org/2000/svg">
<path d="M0.92 18.5605V1.28055H3.812V15.8485H11.444V18.5605H0.92ZM20.3161 18.9205C18.5881 18.9205 17.1081 18.5445 15.8761 17.7925C14.6441 17.0325 13.6961 15.9765 13.0321 14.6245C12.3761 13.2725 12.0481 11.7045 12.0481 9.92055C12.0481 8.13655 12.3761 6.56855 13.0321 5.21655C13.6961 3.86455 14.6441 2.81255 15.8761 2.06055C17.1081 1.30055 18.5881 0.920547 20.3161 0.920547C22.0441 0.920547 23.5241 1.30055 24.7561 2.06055C25.9961 2.81255 26.9441 3.86455 27.6001 5.21655C28.2641 6.56855 28.5961 8.13655 28.5961 9.92055C28.5961 11.7045 28.2641 13.2725 27.6001 14.6245C26.9441 15.9765 25.9961 17.0325 24.7561 17.7925C23.5241 18.5445 22.0441 18.9205 20.3161 18.9205ZM20.3161 16.1965C21.4761 16.2045 22.4401 15.9485 23.2081 15.4285C23.9841 14.9085 24.5641 14.1765 24.9481 13.2325C25.3401 12.2885 25.5361 11.1845 25.5361 9.92055C25.5361 8.65655 25.3401 7.56055 24.9481 6.63255C24.5641 5.69655 23.9841 4.96855 23.2081 4.44855C22.4401 3.92855 21.4761 3.66055 20.3161 3.64455C19.1561 3.63655 18.1921 3.89255 17.4241 4.41255C16.6561 4.93255 16.0761 5.66455 15.6841 6.60855C15.3001 7.55255 15.1081 8.65655 15.1081 9.92055C15.1081 11.1845 15.3001 12.2845 15.6841 13.2205C16.0681 14.1485 16.6441 14.8725 17.4121 15.3925C18.1881 15.9125 19.1561 16.1805 20.3161 16.1965ZM38.1127 18.9205C36.9927 18.9205 35.9407 18.7245 34.9567 18.3325C33.9807 17.9325 33.1207 17.3485 32.3767 16.5805C31.6407 15.8125 31.0647 14.8725 30.6487 13.7605C30.2327 12.6405 30.0247 11.3605 30.0247 9.92055C30.0247 8.03255 30.3767 6.42055 31.0807 5.08455C31.7847 3.74055 32.7487 2.71255 33.9727 2.00055C35.1967 1.28055 36.5767 0.920547 38.1127 0.920547C40.2407 0.920547 41.9247 1.41655 43.1647 2.40855C44.4127 3.39255 45.2567 4.77655 45.6967 6.56055L42.7447 7.02855C42.4167 6.00455 41.8807 5.18855 41.1367 4.58055C40.3927 3.96455 39.4447 3.65655 38.2927 3.65655C37.1327 3.64055 36.1687 3.89255 35.4007 4.41255C34.6327 4.93255 34.0527 5.66455 33.6607 6.60855C33.2767 7.55255 33.0847 8.65655 33.0847 9.92055C33.0847 11.1845 33.2767 12.2845 33.6607 13.2205C34.0447 14.1485 34.6207 14.8725 35.3887 15.3925C36.1647 15.9125 37.1327 16.1805 38.2927 16.1965C39.1647 16.2045 39.9287 16.0485 40.5847 15.7285C41.2407 15.4005 41.7767 14.9085 42.1927 14.2525C42.6087 13.5885 42.8887 12.7605 43.0327 11.7685H39.9847V9.50055H46.1047C46.1207 9.62855 46.1327 9.81655 46.1407 10.0645C46.1487 10.3125 46.1527 10.4605 46.1527 10.5085C46.1527 12.1405 45.8287 13.5925 45.1807 14.8645C44.5407 16.1285 43.6207 17.1205 42.4207 17.8405C41.2207 18.5605 39.7847 18.9205 38.1127 18.9205ZM55.8708 18.9205C54.1428 18.9205 52.6628 18.5445 51.4308 17.7925C50.1988 17.0325 49.2508 15.9765 48.5868 14.6245C47.9308 13.2725 47.6028 11.7045 47.6028 9.92055C47.6028 8.13655 47.9308 6.56855 48.5868 5.21655C49.2508 3.86455 50.1988 2.81255 51.4308 2.06055C52.6628 1.30055 54.1428 0.920547 55.8708 0.920547C57.5988 0.920547 59.0788 1.30055 60.3108 2.06055C61.5508 2.81255 62.4988 3.86455 63.1548 5.21655C63.8188 6.56855 64.1508 8.13655 64.1508 9.92055C64.1508 11.7045 63.8188 13.2725 63.1548 14.6245C62.4988 15.9765 61.5508 17.0325 60.3108 17.7925C59.0788 18.5445 57.5988 18.9205 55.8708 18.9205ZM55.8708 16.1965C57.0308 16.2045 57.9948 15.9485 58.7628 15.4285C59.5388 14.9085 60.1188 14.1765 60.5028 13.2325C60.8948 12.2885 61.0908 11.1845 61.0908 9.92055C61.0908 8.65655 60.8948 7.56055 60.5028 6.63255C60.1188 5.69655 59.5388 4.96855 58.7628 4.44855C57.9948 3.92855 57.0308 3.66055 55.8708 3.64455C54.7108 3.63655 53.7468 3.89255 52.9788 4.41255C52.2108 4.93255 51.6308 5.66455 51.2388 6.60855C50.8548 7.55255 50.6628 8.65655 50.6628 9.92055C50.6628 11.1845 50.8548 12.2845 51.2388 13.2205C51.6228 14.1485 52.1988 14.8725 52.9668 15.3925C53.7428 15.9125 54.7108 16.1805 55.8708 16.1965Z" fill="#1B6AE4"/>
</svg>
